<svg xmlns="http://www.w3.org/2000/svg" viewBox="0 0 183.13 183.13"><defs><style>.cls-1{fill:#f78f1e;}.cls-2{fill:#231f20;}.cls-3{fill:#fff;}</style></defs><g id="Layer_2" data-name="Layer 2"><g id="Layer_1-2" data-name="Layer 1"><rect class="cls-1" width="183.13" height="183.13" rx="20"/><path class="cls-2" d="M109,170.24H88.13a89.73,89.73,0,0,1-1.52-12.58c-5.3,11-16.72,14.79-29.6,14.79C28.5,172.45,19.25,156,19.25,130V54c0-25.75,12.85-43.35,45.2-43.35,38.75,0,44,22.22,44,40.42v4.64H81.76V50.25c0-9.44-1.58-20.34-17.4-20.34-12.28,0-18,6.46-18,21.26v80.74c0,13.82,4.82,21.8,17.34,21.8,15.37,0,18.55-10.71,18.55-28.53V101.33H62.93V83.08H109Z"/><path class="cls-3" d="M102.32,66.25V63c0-11.67,4.53-26.07,29.52-26.07,21.47,0,28.73,10.75,28.73,26v4.3c0,12.8-5.22,18.79-13.48,21.43v.18c10.25,2.81,16.8,8.9,16.8,22.65v9.21c0,17.81-7,30.6-32.26,30.6-22.85,0-31.16-10.18-31.16-25.83v-3.47h18v3.35c0,6.91,2.9,13.26,13,13.26s13-5.92,13-15.88v-11c0-11.65-5.07-15.77-17.21-15.77h-6V82.83h5.85c10.51,0,14.56-3.34,14.56-13.94v-6c0-7.29-1.73-13.09-10.74-13.09s-11.18,5.75-11.18,12.38v4.11Z"/></g></g></svg>